<svg class="logo" viewBox="0 0 1080 619" xmlns="http://www.w3.org/2000/svg">
        <path d="M0 0 C1.81099441 0.00222476 3.62198888 0.00440116 5.4329834 0.00653076 C93.5758995 0.14989731 180.86676149 11.95175616 264.87011719 39.31591797 C267.65040755 40.21922466 270.43663964 41.09967351 273.2265625 41.97265625 C323.64258672 57.97312841 372.90859505 81.51680691 415.9375 112.3125 C416.70336426 112.8605127 417.46922852 113.40852539 418.25830078 113.97314453 C428.51697813 121.34959264 438.48113734 128.92902281 447.9375 137.3125 C448.89398437 138.158125 449.85046875 139.00375 450.8359375 139.875 C463.0393965 150.86792821 474.8702888 162.30824921 484.9375 175.3125 C485.80111102 176.37684948 486.66712678 177.4392509 487.53515625 178.5 C505.04383011 200.04315969 518.98574397 224.66016164 526.9375 251.3125 C527.14165527 251.97894531 527.34581055 252.64539063 527.55615234 253.33203125 C542.39998125 302.37034911 533.57105999 352.41951082 510.04541016 397.02758789 C494.26289983 426.04619163 470.43922299 453.34244207 444.9375 474.3125 C444.41704102 474.75207031 443.89658203 475.19164062 443.36035156 475.64453125 C433.39793261 484.05796526 423.02100733 491.6056784 412.16699219 498.82519531 C410.13580502 500.18020979 408.11651649 501.55070005 406.1015625 502.9296875 C334.07628603 552.03473907 248.57784362 578.53468246 114.9375 602.3125 C114.19455688 602.40595703 113.45161377 602.49941406 112.68615723 602.59570312 C95.22292698 604.777079 77.75311168 606.49877386 60.17578125 607.41015625 C59.37199036 607.45249641 58.56819946 607.49483658 57.74005127 607.53845978 C40.57975145 608.42403819 23.44056857 608.62225018 6.26025391 608.57324219 C2.24137389 608.5618489 -1.77724098 608.5686598 -5.79611206 608.58011246 C-36.61914627 608.65458426 -67.4250139 607.60900679 -98.0625 604.0625 C-99.00976959 603.95578979 -99.95703918 603.84907959 -100.93301392 603.73913574 C-163.0235845 596.72383172 -224.76688644 583.6455353 -283.54882812 562.22802734 C-285.29840962 561.59079632 -287.04986233 560.9586893 -288.80273438 560.33056641 C-305.2477671 554.42815422 -321.20103338 547.63264418 -337.0625 540.3125 C-338.14772949 539.81314941 -339.23295898 539.31379883 -340.35107422 538.79931641 C-372.15977386 524.08185836 -402.38749606 505.86071062 -430.0625 484.3125 C-430.65466309 483.85182129 -431.24682617 483.39114258 -431.85693359 482.91650391 C-447.30046913 470.83008658 -463.18735977 457.45990946 -475.4375 442.0625 C-477.7057245 439.22625335 -479.97334451 436.41452173 -482.36328125 433.6796875 C-505.1146465 407.53982104 -521.80776025 375.20550257 -529.0625 341.3125 C-529.22331055 340.62784668 -529.38412109 339.94319336 -529.54980469 339.23779297 C-534.72013178 316.81349806 -534.35156997 289.66610872 -529.0625 267.3125 C-528.89621094 266.5587207 -528.72992187 265.80494141 -528.55859375 265.02832031 C-517.37909335 214.90689353 -484.03501335 168.8930247 -445.0625 136.3125 C-444.53333984 135.8695459 -444.00417969 135.4265918 -443.45898438 134.97021484 C-376.20166779 78.90407471 -294.42588631 45.15958651 -210.0625 24.3125 C-208.90074249 24.02502899 -208.90074249 24.02502899 -207.71551514 23.73175049 C-139.60066237 6.94820742 -70.07146125 -0.1526607 0 0 Z " fill="#DB1919" transform="translate(541.0625,4.6875)"/>
<path d="M0 0 C1.81099441 0.00222476 3.62198888 0.00440116 5.4329834 0.00653076 C93.5758995 0.14989731 180.86676149 11.95175616 264.87011719 39.31591797 C267.65040755 40.21922466 270.43663964 41.09967351 273.2265625 41.97265625 C323.64258672 57.97312841 372.90859505 81.51680691 415.9375 112.3125 C416.70336426 112.8605127 417.46922852 113.40852539 418.25830078 113.97314453 C428.51697813 121.34959264 438.48113734 128.92902281 447.9375 137.3125 C448.89398437 138.158125 449.85046875 139.00375 450.8359375 139.875 C463.0393965 150.86792821 474.8702888 162.30824921 484.9375 175.3125 C485.80111102 176.37684948 486.66712678 177.4392509 487.53515625 178.5 C505.04383011 200.04315969 518.98574397 224.66016164 526.9375 251.3125 C527.14165527 251.97894531 527.34581055 252.64539063 527.55615234 253.33203125 C542.39998125 302.37034911 533.57105999 352.41951082 510.04541016 397.02758789 C494.26289983 426.04619163 470.43922299 453.34244207 444.9375 474.3125 C444.41704102 474.75207031 443.89658203 475.19164062 443.36035156 475.64453125 C433.39793261 484.05796526 423.02100733 491.6056784 412.16699219 498.82519531 C410.13580502 500.18020979 408.11651649 501.55070005 406.1015625 502.9296875 C334.07628603 552.03473907 248.57784362 578.53468246 114.9375 602.3125 C114.19455688 602.40595703 113.45161377 602.49941406 112.68615723 602.59570312 C95.22292698 604.777079 77.75311168 606.49877386 60.17578125 607.41015625 C59.37199036 607.45249641 58.56819946 607.49483658 57.74005127 607.53845978 C40.57975145 608.42403819 23.44056857 608.62225018 6.26025391 608.57324219 C2.24137389 608.5618489 -1.77724098 608.5686598 -5.79611206 608.58011246 C-36.61914627 608.65458426 -67.4250139 607.60900679 -98.0625 604.0625 C-99.00976959 603.95578979 -99.95703918 603.84907959 -100.93301392 603.73913574 C-163.0235845 596.72383172 -224.76688644 583.6455353 -283.54882812 562.22802734 C-285.29840962 561.59079632 -287.04986233 560.9586893 -288.80273438 560.33056641 C-305.2477671 554.42815422 -321.20103338 547.63264418 -337.0625 540.3125 C-338.14772949 539.81314941 -339.23295898 539.31379883 -340.35107422 538.79931641 C-372.15977386 524.08185836 -402.38749606 505.86071062 -430.0625 484.3125 C-430.65466309 483.85182129 -431.24682617 483.39114258 -431.85693359 482.91650391 C-447.30046913 470.83008658 -463.18735977 457.45990946 -475.4375 442.0625 C-477.7057245 439.22625335 -479.97334451 436.41452173 -482.36328125 433.6796875 C-505.1146465 407.53982104 -521.80776025 375.20550257 -529.0625 341.3125 C-529.22331055 340.62784668 -529.38412109 339.94319336 -529.54980469 339.23779297 C-534.72013178 316.81349806 -534.35156997 289.66610872 -529.0625 267.3125 C-528.89621094 266.5587207 -528.72992187 265.80494141 -528.55859375 265.02832031 C-517.37909335 214.90689353 -484.03501335 168.8930247 -445.0625 136.3125 C-444.53333984 135.8695459 -444.00417969 135.4265918 -443.45898438 134.97021484 C-376.20166779 78.90407471 -294.42588631 45.15958651 -210.0625 24.3125 C-208.90074249 24.02502899 -208.90074249 24.02502899 -207.71551514 23.73175049 C-139.60066237 6.94820742 -70.07146125 -0.1526607 0 0 Z M-97.0625 30.3125 C-98.08956055 30.42611877 -99.11662109 30.53973755 -100.17480469 30.65679932 C-133.45996456 34.36475486 -166.11815954 39.61577718 -198.68017578 47.5 C-201.70859708 48.22748564 -204.74065469 48.93300036 -207.77734375 49.625 C-245.31282778 58.2136277 -281.79545993 70.94849645 -317.0625 86.3125 C-318.26148926 86.83344238 -319.46047852 87.35438477 -320.69580078 87.89111328 C-335.45911079 94.36449699 -349.58648915 101.63823458 -363.48486328 109.80029297 C-365.89743125 111.21566009 -368.31950348 112.61275809 -370.74609375 114.00390625 C-390.04505702 125.12141401 -408.02501783 137.96641134 -425.0625 152.3125 C-425.60084473 152.76061035 -426.13918945 153.2087207 -426.69384766 153.67041016 C-437.98067867 163.07345094 -448.66423761 172.98590887 -458.0625 184.3125 C-458.52237305 184.8585791 -458.98224609 185.4046582 -459.45605469 185.96728516 C-479.4015505 209.69683298 -495.31467443 236.07708313 -503.0625 266.3125 C-503.47435547 267.7046875 -503.47435547 267.7046875 -503.89453125 269.125 C-516.14821794 310.65473616 -504.71076258 354.22473631 -485.04931641 391.32080078 C-468.86120031 420.84748521 -444.27469904 446.51846501 -418.0625 467.3125 C-416.70898438 468.41078125 -416.70898438 468.41078125 -415.328125 469.53125 C-399.92636039 481.7548727 -383.17275546 492.63027474 -366.0625 502.3125 C-365.29389648 502.74949219 -364.52529297 503.18648438 -363.73339844 503.63671875 C-322.34310117 527.0319313 -277.65683335 545.46739886 -231.6875 557.6875 C-230.56754639 557.98640137 -229.44759277 558.28530273 -228.29370117 558.59326172 C-225.99383786 559.20606118 -223.69362792 559.81756131 -221.39306641 560.42773438 C-218.28520156 561.25333929 -215.17956959 562.08687491 -212.07421875 562.921875 C-186.78213547 569.67790575 -161.17454982 575.10681978 -135.17578125 578.27392578 C-130.61779098 578.83040531 -126.10292873 579.46696253 -121.58203125 580.2734375 C-113.90892353 581.5798396 -106.18367666 582.30902334 -98.44067383 583.0625 C-95.92414104 583.30771168 -93.40834498 583.55956478 -90.89257812 583.8125 C-86.52830939 584.24804851 -82.16178844 584.65491759 -77.7940979 585.05453491 C-75.08608575 585.31027262 -72.38171902 585.59249536 -69.67651367 585.8762207 C-50.00855301 587.81840339 -30.31510576 587.57937935 -10.57519531 587.50811768 C-6.8207065 587.49732985 -3.06625393 587.49769598 0.68824768 587.4981184 C39.30073788 587.59506147 39.30073788 587.59506147 77.8125 585.125 C79.08875244 585.00044434 80.36500488 584.87588867 81.67993164 584.74755859 C108.96864573 582.00851324 136.36923917 578.82549973 163.16503906 572.89941406 C166.04724229 572.28926819 168.93509164 571.75610571 171.8359375 571.2421875 C202.49868305 565.78573258 232.50436857 557.42520919 261.9375 547.3125 C263.01032227 546.94833984 264.08314453 546.58417969 265.18847656 546.20898438 C302.72254945 533.40503185 339.0976747 517.01336236 372.9375 496.3125 C374.4165942 495.42045275 375.89575558 494.52851688 377.375 493.63671875 C396.76440012 481.83750002 414.77925724 468.21692821 431.3515625 452.7109375 C433.46004644 450.75533457 435.6024734 448.89952633 437.8125 447.0625 C449.75902588 436.62474861 459.68072662 424.12389894 468.9375 411.3125 C469.3804541 410.7050293 469.8234082 410.09755859 470.27978516 409.47167969 C497.90899786 371.19625095 510.12003196 326.05500389 502.9375 279.3125 C500.62904857 266.53414895 497.04895916 254.24320503 491.9375 242.3125 C491.65036133 241.63799805 491.36322266 240.96349609 491.06738281 240.26855469 C483.85966426 223.60119255 474.44758025 208.3426444 462.9375 194.3125 C462.51533203 193.79413574 462.09316406 193.27577148 461.65820312 192.74169922 C447.02235465 174.83204253 431.04055205 158.66743123 412.65185547 144.62841797 C410.98712291 143.35058993 409.33747832 142.05564947 407.69140625 140.75390625 C393.59598689 129.65352093 378.42350664 120.33565106 362.9375 111.3125 C361.96458008 110.74450684 360.99166016 110.17651367 359.98925781 109.59130859 C320.28615642 86.54262012 276.95637135 70.11038324 232.9375 57.3125 C232.27838623 57.12018799 231.61927246 56.92787598 230.94018555 56.72973633 C197.08884469 46.95711297 162.81373251 40.11289403 128.0425415 34.64385986 C126.10658128 34.33911551 124.17118222 34.03081181 122.23583984 33.72216797 C114.24924702 32.47281158 106.24705502 31.43917216 98.21179199 30.56115723 C96.64842971 30.39022872 95.08537307 30.21648873 93.52258301 30.04040527 C30.88065668 23.02854218 -34.43641107 23.30359517 -97.0625 30.3125 Z " fill="#DB1D1D" transform="translate(541.0625,4.6875)"/>
<path d="M0 0 C2.86080639 0.00974449 5.72159785 0.0149982 8.58241653 0.01975632 C76.64208239 0.16848247 144.34408164 7.419616 210.36119461 24.44703293 C211.23920731 24.6713298 212.11722 24.89562668 213.02183914 25.12672043 C218.4800314 26.52441229 223.92970288 27.94876451 229.36119461 29.44703293 C230.37335037 29.72579269 231.38550613 30.00455246 232.42833328 30.29175949 C241.80689909 32.92035175 251.06043915 35.86558426 260.29869461 38.94703293 C261.46181168 39.33470337 261.46181168 39.33470337 262.64842606 39.73020554 C287.15607506 47.92764977 311.05398392 57.24339128 334.36119461 68.44703293 C335.43433914 68.95580978 335.43433914 68.95580978 336.52916336 69.47486496 C371.45326517 86.07067464 404.41448597 107.25351366 433.01744461 133.32203293 C435.16812172 135.27198017 437.34944432 137.17729422 439.54869461 139.07203293 C446.03024346 144.73362681 451.76685493 150.9203033 457.36119461 157.44703293 C458.16299149 158.34808762 458.96478836 159.2491423 459.79088211 160.17750168 C479.9808913 183.09780584 495.98487727 210.6898893 503.36119461 240.44703293 C503.63576492 241.44090012 503.91033524 242.4347673 504.19322586 243.45875168 C515.61154113 287.38832913 504.67439776 331.5422699 482.72496414 370.1535759 C466.38335473 397.63533008 443.28537802 421.6747757 418.36119461 441.44703293 C417.45885086 442.17922043 416.55650711 442.91140793 415.62681961 443.66578293 C358.71143476 488.83672329 287.37716726 518.08213319 217.35972977 535.69117355 C214.33879672 536.4526789 211.324485 537.23697455 208.31041336 538.02515793 C195.27581573 541.40023482 182.173037 544.25488098 168.94420242 546.75904465 C166.25196427 547.27599253 163.56581971 547.81044733 160.8797493 548.35767746 C147.50256797 551.04493727 134.07946742 552.948168 120.54185867 554.62965012 C116.99614582 555.07079484 113.45209104 555.52377051 109.90806961 555.97828293 C72.2987191 560.7528807 34.91320571 561.71062274 -2.95130539 561.75953293 C-4.35267935 561.7619216 -4.35267935 561.7619216 -5.78236389 561.76435852 C-34.52683269 561.80584016 -62.90377844 561.12600286 -91.47675705 557.70020676 C-94.8541861 557.30471299 -98.2363083 556.9638546 -101.61927414 556.61890793 C-111.30430132 555.60622 -120.91418911 554.37082108 -130.48426437 552.56299973 C-134.83108344 551.74255797 -139.17275013 551.09247938 -143.55970383 550.52613449 C-233.06399482 538.82146004 -327.00302127 505.22151096 -430.87708664 426.98609543 C-433.04849794 424.98974841 -435.24746545 423.08162264 -437.51380539 421.19703293 C-449.46033127 410.75928154 -459.38203201 398.25843187 -468.63880539 385.44703293 C-469.08175949 384.83956223 -469.52471359 384.23209152 -469.98109055 383.60621262 C-485.98608047 361.43410594 -498.1064861 335.49526697 -502.63880539 308.44703293 C-502.81540695 307.41111008 -502.99200851 306.37518723 -503.17396164 305.30787277 C-504.51540041 296.80852625 -504.94408859 288.54357128 -504.88880539 279.94703293 C-504.89653976 278.74433762 -504.90427414 277.5416423 -504.91224289 276.30250168 C-504.82800273 237.08870527 -487.2188576 198.39208106 -462.63880539 168.44703293 C-461.98960129 167.65353439 -461.98960129 167.65353439 -461.32728195 166.84400558 C-454.41024953 158.42381966 -447.11829743 150.3690346 -439.63880539 142.44703293 C-439.00329758 141.76898605 -438.36778976 141.09093918 -437.71302414 140.39234543 C-433.65109736 136.18500361 -429.19099177 132.5442437 -424.63489914 128.88453293 C-422.09641884 126.81932862 -419.61548569 124.70381241 -417.14710617 122.55591965 C-392.08090745 100.87135917 -362.39167638 83.67738918 -332.58460617 69.38746262 C-330.60171352 68.42910597 -328.63395902 67.44375691 -326.66614914 66.45484543 C-283.34512179 44.97677291 -236.39602782 30.94983117 -189.38880539 20.30933762 C-186.759294 19.70468695 -184.13570321 19.08768931 -181.51380539 18.45191574 C-171.93887697 16.13612517 -162.36072274 14.17142052 -152.63880539 12.57203293 C-151.52096161 12.38693665 -151.52096161 12.38693665 -150.38053513 12.19810104 C-137.49249759 10.08159884 -124.56536569 8.27635307 -111.60779953 6.64204025 C-109.66138462 6.39644586 -107.71537784 6.14758239 -105.76990891 5.89460373 C-70.65761714 1.36511498 -35.37461197 -0.12475167 0 0 Z M-78.63880539 18.19703293 C-79.90706161 18.32724838 -79.90706161 18.32724838 -81.20093918 18.46009445 C-107.92400155 21.2146274 -134.44177629 24.70329708 -160.88880539 29.44703293 C-161.80061569 29.60852829 -162.71242599 29.77002365 -163.65186691 29.93641281 C-174.48778648 31.86920568 -185.06713298 34.21155526 -195.63123703 37.31080246 C-199.66384238 38.48505278 -203.72542426 39.41509727 -207.82630539 40.32203293 C-217.68758323 42.55960506 -227.28813759 45.61602014 -236.9381218 48.61841965 C-240.04215291 49.57078645 -243.15855867 50.47175494 -246.28089523 51.36182785 C-281.29592165 61.37985343 -315.39029306 76.0782886 -347.0631218 93.99146652 C-349.52280624 95.38147966 -351.99201115 96.75307418 -354.46302414 98.12281418 C-391.24887548 118.73313684 -427.69269664 146.08647966 -452.63880539 180.44703293 C-453.34907883 181.38547043 -454.05935226 182.32390793 -454.79114914 183.29078293 C-465.69749192 197.86048461 -475.4852142 213.91471782 -480.63880539 231.44703293 C-481.15228136 233.03276753 -481.67259973 234.6163109 -482.20130539 236.19703293 C-482.43849289 236.91890793 -482.67568039 237.64078293 -482.92005539 238.38453293 C-483.60845052 240.35992766 -484.39698574 242.26666576 -485.20130539 244.19703293 C-489.10705593 254.73575495 -488.98506579 266.21154923 -488.95447922 277.3020134 C-488.95132763 279.68025124 -488.97484519 282.05722958 -489.00013351 284.43531418 C-489.09673084 307.7622863 -482.67516624 328.56607753 -472.63880539 349.44703293 C-472.32572433 350.10058762 -472.01264328 350.7541423 -471.69007492 351.42750168 C-466.4422251 362.20656854 -459.78385115 371.84515717 -452.63880539 381.44703293 C-451.97236008 382.34937668 -451.30591476 383.25172043 -450.61927414 384.18140793 C-444.24603919 392.45689383 -436.86955393 399.9263723 -429.63880539 407.44703293 C-429.08579758 408.023405 -428.53278976 408.59977707 -427.96302414 409.19361496 C-421.25764 416.14649932 -414.24824252 422.4825093 -406.63880539 428.44703293 C-405.21241745 429.57057175 -405.21241745 429.57057175 -403.75721359 430.71680832 C-395.80955986 436.90984275 -387.65800241 442.68925519 -379.26380539 448.25953293 C-378.29069412 448.90692429 -378.29069412 448.90692429 -377.29792404 449.56739426 C-365.40021934 457.46312063 -353.27672765 464.78605761 -340.63880539 471.44703293 C-339.22220627 472.19557541 -339.22220627 472.19557541 -337.77698898 472.95923996 C-311.30396498 486.82479191 -283.15697681 499.49724861 -254.32239914 507.59547043 C-251.63880539 508.44703293 -251.63880539 508.44703293 -248.58021164 509.83375168 C-243.30298809 512.14858761 -237.70030929 513.43315107 -232.13880539 514.88453293 C-230.96608078 515.19455246 -229.79335617 515.50457199 -228.58509445 515.82398605 C-226.27600489 516.43436883 -223.96645023 517.0429955 -221.65638351 517.64966965 C-219.31806361 518.26754609 -216.98438537 518.89628223 -214.65443039 519.54468918 C-165.92926048 533.00822297 -116.43712329 540.19335141 -66.17396164 544.65015793 C-65.43151199 544.71658997 -64.68906235 544.783022 -63.92411423 544.85146713 C-61.49651693 545.06209987 -59.06807112 545.25657865 -56.63880539 545.44703293 C-55.56306259 545.53479492 -54.48731979 545.62255692 -53.37897873 545.71297836 C-43.08354859 546.48588199 -32.84128989 546.61062519 -22.52161789 546.61500168 C-20.69397076 546.61823069 -18.86632386 546.62159586 -17.03867722 546.62508774 C-13.21804331 546.63103825 -9.39743187 546.6329323 -5.57679367 546.63233566 C-1.73364613 546.63225508 2.10938049 546.6390951 5.9525032 546.65284348 C35.58356948 546.75711603 65.11461598 546.37402316 94.54869461 542.57203293 C95.96032048 542.39604302 97.37202584 542.22068979 98.78380203 542.04590988 C101.62262671 541.6923564 104.46046913 541.33205107 107.29771805 540.9660759 C111.15222858 540.47015589 115.0102245 540.00625384 118.86900711 539.54468918 C160.04010352 534.50030259 201.56447335 526.07024656 241.01305008 513.17408371 C243.60254706 512.37230351 246.21040835 511.68774925 248.83385086 511.00562668 C253.34601757 509.79772277 257.58548184 508.24665954 261.8953743 506.45582199 C265.17359489 505.11467274 268.50255995 503.94268235 271.8406868 502.76050949 C301.75059723 492.15016474 330.77701398 479.14298973 358.36119461 463.44703293 C359.1169075 463.0221257 359.87262039 462.59721848 360.65123367 462.15943527 C380.83081095 450.78983423 400.9949534 437.53003077 417.95494461 421.67750168 C419.97855908 419.80171619 422.03524248 417.99233663 424.12291336 416.18922043 C436.11850867 405.71995639 446.96782277 394.29471772 456.36119461 381.44703293 C457.23082289 380.28415031 458.10061597 379.12139091 458.97056961 377.95875168 C468.54062999 365.01981398 475.80140188 351.10600371 482.36119461 336.44703293 C482.97994461 335.07418137 482.97994461 335.07418137 483.61119461 333.67359543 C490.57105536 317.30704789 492.72532848 300.15324426 492.67686844 282.53712082 C492.67371227 280.14790083 492.69725068 277.7599289 492.72252274 275.37086105 C492.92118312 226.93889506 463.82614713 185.01126596 430.98619461 151.88453293 C425.56499526 146.46333357 420.12485107 141.26871356 414.06138992 136.56666183 C411.47151784 134.53363567 408.95769641 132.43083428 406.43931961 130.31031418 C399.91524077 124.96627305 393.018539 120.27924641 385.98619461 115.63453293 C385.32823898 115.19816513 384.67028336 114.76179733 383.99238968 114.31220627 C372.71833399 106.84678525 361.28742586 99.831012 349.36119461 93.44703293 C348.33493973 92.89354172 347.30868484 92.34005051 346.25133133 91.76978683 C304.86081842 69.54665156 260.88670375 52.96974447 215.36119461 41.44703293 C213.53419022 40.97765305 213.53419022 40.97765305 211.67027664 40.49879074 C179.87520175 32.3648846 147.7107899 25.70136647 115.09703445 21.89136887 C111.86716409 21.50721228 108.64208212 21.099576 105.41701984 20.67781162 C90.57454485 18.74534191 75.74664162 17.16259299 60.79869461 16.34156418 C60.04195827 16.29925863 59.28522194 16.25695309 58.5055542 16.21336555 C40.190039 15.21372373 21.88774051 15.17815116 3.55022049 15.25141525 C0.10061361 15.26233667 -3.34895517 15.26183143 -6.79857635 15.26142311 C-30.84833722 15.26200929 -54.69941535 15.70357265 -78.63880539 18.19703293 Z " fill="#FEFAFA" transform="translate(537.6388053894043,30.552967071533203)"/>
<path d="M0 0 C1.77226478 -0.01150821 3.54452957 -0.02301512 5.3167944 -0.03451681 C6.90230542 -0.04481763 8.48781631 -0.05513985 10.07332706 -0.06548166 C14.46506774 -0.09409505 18.85681035 -0.12232144 23.24855804 -0.14983749 C31.49824847 -0.20188088 39.74773466 -0.25840681 47.99720764 -0.33872223 C51.27447212 -0.36641783 54.55160838 -0.37705296 57.82897949 -0.3817749 C59.42082218 -0.38782833 61.01264916 -0.40170631 62.60437012 -0.42230225 C81.51496914 -0.65428545 98.8352923 2.41474347 113.06640625 15.9609375 C123.29703176 26.74959713 124.62952745 41.69012833 124.3359375 55.94140625 C124.12341656 59.83319592 123.20596574 63.28666665 122 67 C121.71640625 67.99902344 121.4328125 68.99804688 121.140625 70.02734375 C118.08198808 80.02157405 113.38772477 86.75244212 105 93 C104.01 93.495 104.01 93.495 103 94 C103 95.32 103 96.64 103 98 C103.57878906 98.04640625 104.15757812 98.0928125 104.75390625 98.140625 C110.53419576 100.35221403 114.00943543 109.95235813 116.62890625 115.3671875 C119.5926553 122.40925789 120.68693735 128.3826281 120 136 C120.66 136 121.32 136 122 136 C123.19329748 142.56313615 123 148.03691521 123 155 C111.78 155 100.56 155 89 155 C88.773125 152.525 88.54625 150.05 88.3125 147.5 C86.82405982 133.91253545 83.57211327 119.6563248 73.0625 110.125 C64.94866579 104.49499259 57.74695093 104.47525404 48.0625 104.3125 C46.69723375 104.27927987 45.33199787 104.24478596 43.96679688 104.20898438 C40.64461414 104.12681024 37.3226853 104.05755632 34 104 C34.00222061 104.63671127 34.00444122 105.27342255 34.00672913 105.9294281 C34.0287804 112.53115276 34.04390593 119.13286704 34.05493164 125.73461914 C34.05997356 128.20142033 34.06680691 130.66821852 34.07543945 133.13500977 C34.08751125 136.67204529 34.09322956 140.20904145 34.09765625 143.74609375 C34.10281754 144.85649521 34.10797882 145.96689667 34.11329651 147.11094666 C34.11337204 148.13192947 34.11344757 149.15291229 34.11352539 150.20483398 C34.115746 151.10862289 34.11796661 152.0124118 34.12025452 152.94358826 C34 155 34 155 33 156 C30.63601532 156.1007812 28.30188689 156.13973215 25.9375 156.1328125 C25.23101318 156.13376923 24.52452637 156.13472595 23.79663086 156.13571167 C22.30029207 156.13639333 20.80395033 156.13454005 19.30761719 156.13037109 C17.00969843 156.12502257 14.71197514 156.13031651 12.4140625 156.13671875 C10.96354123 156.13605797 9.51302009 156.1347768 8.0625 156.1328125 C7.0250061 156.13584885 7.0250061 156.13584885 5.96655273 156.13894653 C1.11495224 156.11495224 1.11495224 156.11495224 0 155 C-0.09672695 153.00038545 -0.1218703 150.99729807 -0.12025452 148.99534607 C-0.12162918 147.68977753 -0.12300385 146.38420898 -0.12442017 145.03907776 C-0.12088055 143.57870461 -0.11724573 142.11833169 -0.11352539 140.65795898 C-0.11324353 139.13073732 -0.11340123 137.60351553 -0.1139679 136.07629395 C-0.11425591 131.91738312 -0.10835855 127.75850089 -0.10139394 123.59959674 C-0.09516106 119.25805476 -0.09455665 114.91651219 -0.09336853 110.57496643 C-0.09025502 102.34786418 -0.08204137 94.12077514 -0.07201904 85.89367872 C-0.06085851 76.52986936 -0.05534761 67.16605938 -0.05032361 57.80224502 C-0.03985877 38.53482251 -0.02225895 19.26741231 0 0 Z " fill="#FEFCFC" transform="translate(344,133)"/>
<path d="M0 0 C13.2 0 26.4 0 40 0 C42.04572097 3.40953495 43.68760788 6.4432651 45.19140625 10.06640625 C46.05159255 12.12337348 46.95961044 14.1545264 47.875 16.1875 C49.37191659 19.54014465 50.79508773 22.91520545 52.1875 26.3125 C54.91259211 32.9002616 57.84675773 39.3896327 60.78979492 45.88208008 C63.95928538 52.87698377 66.97541804 59.90002579 69.75 67.0625 C71.78891917 72.2623279 74.06108991 77.22473842 76.625 82.1875 C79.41530566 87.59564209 81.4716027 92.93214139 83.17578125 98.76953125 C83.77470331 101.17233731 83.77470331 101.17233731 86 102 C86 68.34 86 34.68 86 0 C96.56 0 107.12 0 118 0 C118 51.48 118 102.96 118 156 C105.79 156 93.58 156 81 156 C78.60312576 152.80416768 77.40485716 150.8901987 76.0625 147.3125 C72.78676419 138.69625808 72.78676419 138.69625808 68.5 130.5625 C67.15533746 128.26536817 66.25494701 126.16502444 65.3125 123.6875 C63.20355597 118.21409273 60.56740792 113.05935283 57.81762695 107.88549805 C55.45456813 103.32284097 54.08589957 99.02648358 53 94 C52.34 94 51.68 94 51 94 C50.67386719 93.11957031 50.34773437 92.23914063 50.01171875 91.33203125 C49.57472656 90.17058594 49.13773438 89.00914062 48.6875 87.8125 C48.04361328 86.08966797 48.04361328 86.08966797 47.38671875 84.33203125 C46.13754762 81.33050175 44.68893807 78.76495507 43 76 C42.31899962 74.38942117 41.67246854 72.76379959 41.0625 71.125 C39.85112924 67.98475425 38.57179589 65.11841722 36.8125 62.25 C35.01624504 59.02912904 34.3551646 56.64043717 34 53 C33.34 53 32.68 53 32 53 C32.00222061 54.27564316 32.00444122 55.55128632 32.00672913 56.86558533 C32.02695827 68.85893148 32.04197104 80.85227419 32.05181217 92.84563351 C32.05704158 99.0122492 32.06414027 105.17885118 32.07543945 111.34545898 C32.08626629 117.29116006 32.0922764 123.23684789 32.09487724 129.18255806 C32.09673186 131.45646943 32.10035317 133.73038004 32.10573006 136.00428581 C32.11293778 139.1772712 32.11399106 142.35020117 32.11352539 145.52319336 C32.11712067 146.47337341 32.12071594 147.42355347 32.12442017 148.40252686 C32.11405216 154.88594784 32.11405216 154.88594784 31 156 C20.77 156 10.54 156 0 156 C0 104.52 0 53.04 0 0 Z " fill="#FEFAFA" transform="translate(546,358)"/>
<path d="M0 0 C12.87 0 25.74 0 39 0 C43.49368179 8.98736358 43.49368179 8.98736358 44.74609375 12.953125 C45.16205811 14.24355713 45.16205811 14.24355713 45.58642578 15.56005859 C45.86728027 16.44773926 46.14813477 17.33541992 46.4375 18.25 C48.63020396 25.01562265 50.97653653 31.59323087 53.8203125 38.1171875 C55.21543099 41.52645057 56.3674393 44.99744305 57.5 48.5 C58.93023045 52.91830172 60.46024815 57.23796231 62.3125 61.5 C65.27761629 68.38430786 67.62170452 75.47215002 70.046875 82.55932617 C72.14841501 88.66268178 74.41681476 94.59917816 76.98828125 100.51953125 C78.3132205 103.76793443 79.23966464 107.08151344 80.1953125 110.453125 C81.42586499 114.34788337 83.07481286 118.0480654 84.6796875 121.80078125 C86.53427434 126.29458783 88.12642012 130.86894293 89.73046875 135.45703125 C91.39606072 140.10531407 93.22772774 144.681962 95.08203125 149.2578125 C96 152 96 152 96 156 C90.92806922 156.12355727 85.85701304 156.21431615 80.78393555 156.2746582 C79.05819441 156.29981005 77.33255988 156.33393619 75.60717773 156.37719727 C73.12717419 156.43782433 70.64857778 156.46620101 68.16796875 156.48828125 C67.39599655 156.51408768 66.62402435 156.5398941 65.82865906 156.56648254 C63.64526367 156.56762695 63.64526367 156.56762695 60 156 C58.09692383 153.76733398 58.09692383 153.76733398 57 151 C56.5369043 149.83549316 56.5369043 149.83549316 56.06445312 148.64746094 C55.80599609 147.85114258 55.54753906 147.05482422 55.28125 146.234375 C54.98863281 145.34363281 54.69601562 144.45289063 54.39453125 143.53515625 C53.95173828 142.15650391 53.95173828 142.15650391 53.5 140.75 C53.05720703 139.39455078 53.05720703 139.39455078 52.60546875 138.01171875 C52.04598963 136.29877607 51.4890066 134.58501423 50.93554688 132.87011719 C49.64367366 128.90684436 48.31819831 124.95459494 47 121 C29.18 121 11.36 121 -7 121 C-9.64 129.25 -12.28 137.5 -15 146 C-15.33 146.99 -15.66 147.98 -16 149 C-16.66 149 -17.32 149 -18 149 C-18.495 151.97 -18.495 151.97 -19 155 C-31.21 155 -43.42 155 -56 155 C-53.870699 144.35349499 -53.870699 144.35349499 -51.0078125 139.82324219 C-48.99796074 136.18720224 -48.09422302 132.11109813 -47 128.125 C-45.37991278 122.27666316 -43.5536893 116.80898423 -41.00390625 111.29980469 C-39.19731602 107.16116657 -37.87669498 102.85917131 -36.5 98.5625 C-34.50949061 92.37737836 -32.37909944 86.31407136 -29.92382812 80.29711914 C-28.68263502 77.21086493 -27.58812321 74.0805586 -26.5 70.9375 C-24.84171491 66.24750351 -23.08602729 61.67210306 -20.9921875 57.16015625 C-18.34285154 51.39211379 -16.25764261 45.79635811 -14.5625 39.6875 C-13.01716443 34.28862071 -11.36743871 29.05981408 -9.17578125 23.8828125 C-7.09652846 18.78484387 -5.25777613 13.59496239 -3.37353516 8.42236328 C-3.08140137 7.6229834 -2.78926758 6.82360352 -2.48828125 6 C-2.09443237 4.9171875 -2.09443237 4.9171875 -1.69262695 3.8125 C-1 2 -1 2 0 0 Z " fill="#FEFAFA" transform="translate(443,358)"/>
<path d="M0 0 C12.54 0 25.08 0 38 0 C40.93085603 5.12899806 42.75238681 8.74732488 44.4375 14.1875 C45.9203739 18.84664964 47.50239739 23.37836734 49.4375 27.875 C51.6604465 33.06873612 53.56976442 38.34006832 55.41992188 43.67407227 C57.82955202 50.58974084 60.37951734 57.45051882 62.9375 64.3125 C66.26409627 73.24106703 69.49009409 82.19418398 72.59521484 91.2019043 C74.71072007 97.2916717 77.08468582 103.23652589 79.52734375 109.203125 C81.55274602 114.29169418 83.19281322 119.50969872 84.88647461 124.71557617 C86.3748212 129.24851406 88.02550243 133.59529298 90.0546875 137.91796875 C91.22409777 140.49357071 92.24798696 143.10482573 93.25 145.75 C93.58515625 146.63171875 93.9203125 147.5134375 94.265625 148.421875 C95 151 95 151 95 156 C83.12 156 71.24 156 59 156 C57.2468621 151.32496559 55.54319278 146.73245786 54 142 C52.86410699 138.53574393 51.67657707 135.13024953 50.3125 131.75 C49 128 49 128 48 120 C29.52 120.33 11.04 120.66 -8 121 C-11.57834591 131.81422667 -11.57834591 131.81422667 -15.15014648 142.63061523 C-15.59855748 143.98168712 -16.04719116 145.33268512 -16.49609375 146.68359375 C-16.72848755 147.39100708 -16.96088135 148.09842041 -17.20031738 148.82727051 C-18.8859282 153.8859282 -18.8859282 153.8859282 -20 155 C-22.6662603 155.08855161 -25.30647114 155.11524673 -27.97265625 155.09765625 C-28.77029892 155.0962413 -29.56794159 155.09482635 -30.38975525 155.09336853 C-32.94737435 155.08775316 -35.50490718 155.07519812 -38.0625 155.0625 C-39.79231645 155.05748698 -41.52213426 155.05292373 -43.25195312 155.04882812 C-47.50133553 155.03777875 -51.75065312 155.02050386 -56 155 C-55.38543756 149.62796042 -54.53979738 145.10612634 -52.625 140 C-52.17382812 138.78570312 -51.72265625 137.57140625 -51.2578125 136.3203125 C-50.84273438 135.22460938 -50.42765625 134.12890625 -50 133 C-49.72929687 132.25492188 -49.45859375 131.50984375 -49.1796875 130.7421875 C-46.4339119 123.19919477 -43.29723975 115.78825433 -39.9375 108.5 C-37.95632825 104.10004828 -36.48872788 99.57678677 -35.0078125 94.98828125 C-34.06360277 92.18858961 -33.00658173 89.47836928 -31.875 86.75 C-30.63528722 83.74478186 -29.65451482 80.85777214 -28.9375 77.6875 C-28 74 -28 74 -26.53125 71.63671875 C-24.86723373 68.77138462 -24.23841699 66.35764646 -23.5625 63.125 C-22.57548045 58.88390037 -21.41402361 55.77902133 -19.03515625 52.09765625 C-17.543366 49.07466997 -16.81034843 45.88028993 -16 42.625 C-14.76822803 37.69135061 -13.34538448 33.1522529 -11.1328125 28.5703125 C-9.24017845 24.27599111 -7.78526343 19.82055753 -6.28173828 15.37744141 C-4.4554712 10.05485854 -2.30971295 5.19685413 0 0 Z " fill="#FEFAFA" transform="translate(530,133)"/>
<path d="M0 0 C8.40798594 6.67568733 13.84663579 13.0680421 18 23 C18.556875 23.86625 19.11375 24.7325 19.6875 25.625 C21.19384245 28.35076254 21.10669316 29.94146277 21 33 C20.28972656 33.13277344 19.57945312 33.26554687 18.84765625 33.40234375 C17.92855469 33.57894531 17.00945312 33.75554687 16.0625 33.9375 C15.14597656 34.11152344 14.22945312 34.28554688 13.28515625 34.46484375 C11.04710156 34.77714988 11.04710156 34.77714988 10 36 C8.21594402 36.37192046 6.42223085 36.69810295 4.625 37 C1.61763093 37.50784069 -1.10209163 38.03403054 -4 39 C-6.33299825 39.03954234 -8.66708189 39.04401732 -11 39 C-11.350625 37.96875 -11.70125 36.9375 -12.0625 35.875 C-15.18658926 28.64871877 -22.02293466 24.957669 -29 22 C-35.81136756 19.72954415 -46.2501951 19.60493311 -52.75 22.75 C-53.8225 23.4925 -54.895 24.235 -56 25 C-56.804375 25.53625 -57.60875 26.0725 -58.4375 26.625 C-60.92884952 30.41185126 -60.83027098 34.55309961 -61 39 C-60.34 39 -59.68 39 -59 39 C-58.401875 39.763125 -57.80375 40.52625 -57.1875 41.3125 C-53.64484246 45.66490784 -49.30481762 47.39478126 -44.125 49.3125 C-38.51244454 51.42277 -32.93394236 53.59840585 -27.37524414 55.84570312 C-24.72501724 56.91605945 -22.07550867 57.97241899 -19.390625 58.953125 C-4.19991006 64.56043588 11.5530792 73.65567759 20.1328125 87.85546875 C22.73884436 94.3001151 23.38886363 100.49655774 23.375 107.375 C23.37338867 108.20990967 23.37177734 109.04481934 23.37011719 109.9050293 C23.14293566 121.33203729 18.33119932 129.40525466 11 138 C-2.04332584 148.59629913 -17.80768674 151.17861257 -34.125 151.1875 C-35.28515625 151.19974609 -36.4453125 151.21199219 -37.640625 151.22460938 C-48.47666988 151.24279066 -58.57589406 150.49236543 -68.25 145.3125 C-69.27275024 144.77967407 -69.27275024 144.77967407 -70.31616211 144.23608398 C-81.80808717 138.06294048 -90.74716134 128.4943645 -95 116 C-95 115.34 -95 114.68 -95 114 C-95.66 114 -96.32 114 -97 114 C-97 112.02 -97 110.04 -97 108 C-95.88882813 107.74605469 -94.77765625 107.49210937 -93.6328125 107.23046875 C-92.13004762 106.88350785 -90.62745461 106.535802 -89.125 106.1875 C-88.34866211 106.00807861 -87.57232422 105.82865723 -86.77246094 105.64379883 C-81.78257017 104.47224569 -76.91385872 103.13134922 -72.078125 101.41796875 C-69.35049891 100.86936726 -67.63346628 101.09963352 -65 102 C-63.33203125 103.8203125 -63.33203125 103.8203125 -61.8125 106.125 C-56.22352268 113.74301908 -49.39005855 118.44396937 -40 120 C-36.97198162 120.27533508 -33.97666471 120.32538874 -30.9375 120.3125 C-30.17373047 120.32861328 -29.40996094 120.34472656 -28.62304688 120.36132812 C-23.34298588 120.36584486 -19.68630654 119.4627019 -15 117 C-12.17570002 113.99348712 -11.69686737 111.12708677 -11.375 107.125 C-11.53946928 103.41895881 -12.03997878 101.18277291 -14.5 98.375 C-28.15931318 86.75236374 -48.90349038 80.76920343 -65.56665039 74.95141602 C-69.40168459 73.45195497 -72.65859248 71.38008988 -76 69 C-76.7528125 68.48566406 -77.505625 67.97132813 -78.28125 67.44140625 C-83.92609698 63.36770834 -87.66957655 59.10408918 -91 53 C-91.41378906 52.27425781 -91.82757812 51.54851562 -92.25390625 50.80078125 C-96.75481371 41.56372727 -96.57370662 29.58737964 -93.375 19.9375 C-88.55446973 8.81836747 -79.65153044 0.10310287 -68.6796875 -4.97265625 C-47.24137799 -13.1917166 -19.3323332 -13.28478282 0 0 Z " fill="#FEFAFA" transform="translate(772,365)"/>
<path d="M0 0 C0.75023437 0.34804687 1.50046875 0.69609375 2.2734375 1.0546875 C12.12888805 6.0688641 19.75452117 13.98985588 26 23 C26.41121094 23.58394531 26.82242188 24.16789062 27.24609375 24.76953125 C30.2878764 29.52719129 31.16147133 34.51646384 32 40 C26.11889352 42.47698367 20.16537469 44.69725957 14.125 46.75 C13.48296631 46.97260498 12.84093262 47.19520996 12.17944336 47.42456055 C8.88979194 48.52571898 6.52180712 49 3 49 C2.79246094 48.443125 2.58492188 47.88625 2.37109375 47.3125 C-1.18641625 38.50059238 -6.26571982 31.98405762 -15 28 C-24.38817675 24.76269767 -34.63096406 24.52208606 -43.7265625 28.74609375 C-54.07949076 34.45621398 -60.50168197 42.20500204 -64.2734375 53.421875 C-66.18618437 60.20904133 -66.18614485 66.67692931 -66.18530273 73.70019531 C-66.1874786 75.7300345 -66.20563291 77.75932 -66.22460938 79.7890625 C-66.24489823 93.450225 -64.05607216 104.38814108 -55 115 C-48.35746062 121.64253938 -40.21946181 123.43127087 -31.125 123.5625 C-22.15296634 123.46156578 -14.34754064 121.98352855 -7.52734375 115.734375 C-5.01405629 112.98615943 -2.67109781 110.34219561 -1 107 C-0.34 107 0.32 107 1 107 C1.66 104.03 2.32 101.06 3 98 C9.62665382 98.53829961 15.26453538 100.8509388 21.375 103.375 C22.38433594 103.77460938 23.39367187 104.17421875 24.43359375 104.5859375 C25.39136719 104.9778125 26.34914063 105.3696875 27.3359375 105.7734375 C28.20782715 106.12841309 29.0797168 106.48338867 29.97802734 106.84912109 C32 108 32 108 33 111 C32.5625 113.1875 32.5625 113.1875 32 115 C31.34 115 30.68 115 30 115 C29.566875 116.5778125 29.566875 116.5778125 29.125 118.1875 C28.22774807 121.22818711 27.23576581 124.08712344 26 127 C25.34 127 24.68 127 24 127 C23.73574219 127.58007812 23.47148437 128.16015625 23.19921875 128.7578125 C16.28762672 141.68046339 2.43271881 149.53376567 -11.125 153.6796875 C-17.50241516 155.32858641 -23.68982983 155.49655874 -30.25 155.4375 C-31.44004639 155.42920166 -32.63009277 155.42090332 -33.85620117 155.41235352 C-50.80764795 155.08727629 -67.49918307 150.1762265 -80.0234375 138.19140625 C-89 128.23913043 -89 128.23913043 -89 124 C-89.66 124 -90.32 124 -91 124 C-91.433125 122.96875 -91.86625 121.9375 -92.3125 120.875 C-93.29827917 118.54539923 -94.32948166 116.40693301 -95.5625 114.1875 C-97.12700813 110.71837329 -97.84863426 107.54366978 -98.49707031 103.81079102 C-98.81050448 102.05905919 -99.14817176 100.31127829 -99.52246094 98.5715332 C-101.10387293 90.97000677 -101.2671265 83.61972486 -101.1875 75.875 C-101.18685547 74.64523438 -101.18621094 73.41546875 -101.18554688 72.1484375 C-101.14070751 63.14070751 -101.14070751 63.14070751 -100 62 C-99.60006314 59.31137336 -99.24865457 56.63647783 -98.9375 53.9375 C-98.84662109 53.17888672 -98.75574219 52.42027344 -98.66210938 51.63867188 C-98.4375626 49.7595699 -98.21829022 47.87983905 -98 46 C-97.34 46 -96.68 46 -96 46 C-95.9175 44.88625 -95.835 43.7725 -95.75 42.625 C-94.06466475 29.66613839 -86.00844521 17.16818271 -76 9 C-54.02274901 -6.97862934 -25.16873101 -11.72354572 0 0 Z " fill="#FEFAFA" transform="translate(301,136)"/>
<path d="M0 0 C1.1821995 0.00138269 1.1821995 0.00138269 2.38828182 0.00279331 C3.28997097 0.00141865 4.19166012 0.00004398 5.12067318 -0.00137234 C6.6160738 0.00402058 6.6160738 0.00402058 8.14168453 0.00952244 C9.18546261 0.00937641 10.22924068 0.00923038 11.3046484 0.00907993 C14.77305295 0.00977956 18.24140454 0.0175743 21.70979977 0.02539158 C24.1073367 0.02725558 26.50487401 0.02867957 28.90241146 0.0296793 C35.22684936 0.03350589 41.55126446 0.04333737 47.87569332 0.05438328 C54.32364754 0.06459438 60.77160543 0.06917627 67.21956539 0.0742197 C79.88168642 0.08495951 92.54378451 0.10255745 105.20589352 0.12304783 C105.20589352 10.35304783 105.20589352 20.58304783 105.20589352 31.12304783 C80.45589352 31.12304783 55.70589352 31.12304783 30.20589352 31.12304783 C30.53589352 43.33304783 30.86589352 55.54304783 31.20589352 68.12304783 C54.96589352 68.45304783 78.72589352 68.78304783 103.20589352 69.12304783 C103.20589352 79.02304783 103.20589352 88.92304783 103.20589352 99.12304783 C67.56589352 99.61804783 67.56589352 99.61804783 31.20589352 100.12304783 C30.87589352 118.60304783 30.54589352 137.08304783 30.20589352 156.12304783 C19.31589352 156.12304783 8.42589352 156.12304783 -2.79410648 156.12304783 C-2.81665212 135.93082784 -2.83508485 115.73861799 -2.84591866 95.54638863 C-2.85108196 86.17146512 -2.85812532 76.79654996 -2.86954594 67.42163181 C-2.87949171 59.25350261 -2.88595966 51.08537946 -2.88819498 42.91724437 C-2.88950227 38.58953728 -2.89258926 34.26184749 -2.89983654 29.93414593 C-2.90659508 25.86555055 -2.90872379 21.79697971 -2.90721416 17.72837925 C-2.90749057 16.2307322 -2.90949667 14.73308438 -2.91331196 13.23544216 C-2.91824655 11.19953464 -2.91650466 9.16361413 -2.914361 7.12770176 C-2.91528279 5.98560025 -2.91620459 4.84349874 -2.91715431 3.6667881 C-2.74890134 0.18853192 -2.74890134 0.18853192 0 0 Z " fill="#FEFBFB" transform="translate(275.7941064834595,357.8769521713257)"/>
<path d="M0 0 C33.66 0 67.32 0 102 0 C102 27.77777778 102 27.77777778 96.140625 33.7890625 C93.9988778 36.00115906 92.64670607 38.23425563 91.17919922 40.92480469 C88.65985059 45.358441 85.74542011 49.55831161 82.9375 53.8125 C78.23489026 60.97317564 73.61198452 68.16401282 69.1875 75.5 C65.54028686 81.5470994 61.74201634 87.45262786 57.78149414 93.29858398 C53.92145378 99.0329524 50.32335946 104.91735696 46.75390625 110.8359375 C44.81246646 114.05235268 42.8633596 117.23827393 40.7421875 120.33984375 C38.8788374 122.93812142 38.8788374 122.93812142 38 126 C59.78 126 81.56 126 104 126 C104 135.57 104 145.14 104 155 C69.02 155 34.04 155 -2 155 C-2 126.37172383 -2 126.37172383 5.60546875 116.57421875 C9.45754559 111.44302148 12.8995902 106.07807767 16.375 100.6875 C17.65821421 98.73004908 18.94206836 96.77301752 20.2265625 94.81640625 C24.38395249 88.44436166 28.38178869 81.97938655 32.36450195 75.49731445 C36.12167743 69.39125312 39.9643494 63.34906451 43.88745117 57.34838867 C46.3986565 53.50075975 48.86213512 49.62898983 51.28125 45.72265625 C51.82837646 44.8423877 52.37550293 43.96211914 52.93920898 43.05517578 C54.00458315 41.33718183 55.06419541 39.61559861 56.11743164 37.89013672 C56.59559326 37.12072754 57.07375488 36.35131836 57.56640625 35.55859375 C57.98865479 34.87079834 58.41090332 34.18300293 58.84594727 33.47436523 C59.41720337 32.74455444 59.41720337 32.74455444 60 32 C60.66 32 61.32 32 62 32 C62 31.01 62 30.02 62 29 C41.54 29 21.08 29 0 29 C0 19.43 0 9.86 0 0 Z " fill="#FEFBFB" transform="translate(633,133)"/>
<path d="M0 0 C11.55 0 23.1 0 35 0 C37 4 37 4 37 8 C37.66 8 38.32 8 39 8 C40.43969458 11.0197921 41.87635087 14.04102035 43.3125 17.0625 C43.71662109 17.91005859 44.12074219 18.75761719 44.53710938 19.63085938 C46.22996955 23.1954999 47.89544357 26.75366731 49.4375 30.38671875 C52.15028994 36.66004549 55.22277921 42.76884067 58.23632812 48.90234375 C58.71908203 49.89878906 59.20183594 50.89523438 59.69921875 51.921875 C60.14096436 52.82518555 60.58270996 53.72849609 61.0378418 54.65917969 C62 57 62 57 62 60 C62.99 60 63.98 60 65 60 C65.37769531 58.7625 65.75539063 57.525 66.14453125 56.25 C68.14699913 50.2507984 70.90382206 44.668715 73.6875 39 C74.76343338 36.78275223 75.83895281 34.56530354 76.9140625 32.34765625 C77.4390332 31.26887207 77.96400391 30.19008789 78.50488281 29.07861328 C80.54621896 24.87527416 82.56328689 20.66101279 84.5625 16.4375 C85.02692505 15.46780273 85.02692505 15.46780273 85.50073242 14.47851562 C87.03612417 11.23101482 88.41323823 7.96649775 89.65234375 4.59765625 C91 1 91 1 92 0 C94.59359322 -0.08851529 97.16039691 -0.11525945 99.75390625 -0.09765625 C100.52935287 -0.0962413 101.3047995 -0.09482635 102.10374451 -0.09336853 C104.59003494 -0.08775345 107.0762366 -0.07519846 109.5625 -0.0625 C111.24413933 -0.05748694 112.92578006 -0.0529237 114.60742188 -0.04882812 C118.73831566 -0.03777913 122.86914276 -0.02050445 127 0 C126.23322089 4.51071732 124.71048042 7.34451869 122.1875 11.1875 C119.14684296 15.92287222 116.79329467 20.58674306 114.859375 25.87109375 C113.6541263 28.85682349 111.78260254 31.32609619 110 34 C109.43034841 35.38464817 108.89249481 36.78252577 108.375 38.1875 C106.80706329 42.27016597 104.96646208 46.10480385 102.91099548 49.95684814 C102.07263396 51.53328096 101.24084569 53.11323252 100.41664124 54.69711304 C97.88689904 59.54148987 95.24983469 64.27615205 92.43432617 68.96069336 C81.93862776 87.13327031 80.0415957 102.26905876 80.63342285 122.99584961 C80.72534799 126.72141155 80.73995839 130.44730058 80.75976562 134.17382812 C80.78401523 138.34820346 80.81476086 142.52111819 80.90666199 146.69462585 C80.93190445 147.90552383 80.95714691 149.11642181 80.9831543 150.36401367 C81.02317818 151.96607918 81.02317818 151.96607918 81.06401062 153.60050964 C81 156 81 156 80 157 C77.56339554 157.10082764 75.15575299 157.13972603 72.71875 157.1328125 C71.99006714 157.13376923 71.26138428 157.13472595 70.51062012 157.13571167 C68.9672029 157.13639335 67.42378283 157.13453988 65.88037109 157.13037109 C63.510026 157.12502262 61.13987041 157.13031642 58.76953125 157.13671875 C57.27343708 157.13605797 55.77734303 157.1347768 54.28125 157.1328125 C53.56771362 157.13483673 52.85417725 157.13686096 52.11901855 157.13894653 C47.11495191 157.11495191 47.11495191 157.11495191 46 156 C45.97097481 154.19428934 46.01217836 152.3874215 46.08032227 150.58276367 C47.82363596 102.75518047 47.82363596 102.75518047 29.23828125 59.48168945 C26.18806043 54.87403963 23.8525793 49.94893905 21.47021484 44.97290039 C19.8664757 41.73000242 18.02560526 38.7499087 16.05078125 35.7265625 C14.37133008 32.9670182 13.24421274 29.97529133 12 27 C10.99283596 25.2689368 9.98552464 23.53793575 8.96875 21.8125 C7.63322228 19.31377071 6.73148726 16.71753264 5.7890625 14.05078125 C4.69420217 11.20522842 3.30007825 8.54743361 1.8671875 5.859375 C1 4 1 4 0 0 Z " fill="#FEF9F9" transform="translate(742,133)"/>
<path d="M0 0 C6.435 -0.04125 12.87 -0.0825 19.5 -0.125 C21.51544922 -0.14320801 23.53089844 -0.16141602 25.60742188 -0.18017578 C27.22786189 -0.18602403 28.84830486 -0.1911188 30.46875 -0.1953125 C31.29149414 -0.20554443 32.11423828 -0.21577637 32.96191406 -0.22631836 C40.99867977 -0.2287131 47.45123326 0.97420227 54 6 C54.598125 6.45375 55.19625 6.9075 55.8125 7.375 C59.47949338 12.39299093 58.43006283 21.07468988 58 27 C56.80410647 32.5943494 53.69074531 35.84276758 49 39 C43.29733687 41.07787884 38.15984803 41.26585064 32.12890625 41.1953125 C30.74541237 41.19106766 30.74541237 41.19106766 29.33396912 41.18673706 C26.41000987 41.17560974 23.48636549 41.15051912 20.5625 41.125 C18.57096799 41.11496057 16.57943114 41.1058364 14.58789062 41.09765625 C9.72504374 41.07740283 4.86287119 41.03824014 0 41 C0 27.47 0 13.94 0 0 Z " fill="#DB1818" transform="translate(377,164)"/>
<path d="M0 0 C1.86132812 0.13305664 1.86132812 0.13305664 4 1 C5.21679688 3.52514648 5.21679688 3.52514648 6.21875 6.87109375 C6.59386719 8.08603516 6.96898437 9.30097656 7.35546875 10.55273438 C7.73778502 11.84741856 8.11929083 13.14234233 8.5 14.4375 C9.25702357 16.937228 10.01738749 19.43594709 10.78125 21.93359375 C11.14863281 23.14257324 11.51601563 24.35155273 11.89453125 25.59716797 C13.11472119 29.35313251 14.55603608 32.94800183 16.18554688 36.54321289 C17 39 17 39 18 47 C7.44 47 -3.12 47 -14 47 C-12.87446505 37.9957204 -12.87446505 37.9957204 -11.9140625 35 C-11.7070874 34.34467285 -11.5001123 33.6893457 -11.28686523 33.01416016 C-11.06844971 32.3494873 -10.85003418 31.68481445 -10.625 31 C-10.39949463 30.29794434 -10.17398926 29.59588867 -9.94165039 28.87255859 C-8.14225735 23.31737677 -6.18397799 17.88175775 -3.96484375 12.48046875 C-3.60519531 11.60003906 -3.24554688 10.71960938 -2.875 9.8125 C-2.54242188 9.01457031 -2.20984375 8.21664063 -1.8671875 7.39453125 C-0.97936173 4.94301235 -0.44655403 2.56540735 0 0 Z " fill="#DD2929" transform="translate(461,402)"/>
<path d="M0 0 C0.99 0 1.98 0 3 0 C3.31453125 1.03898438 3.6290625 2.07796875 3.953125 3.1484375 C6.65458295 12.11324363 6.65458295 12.11324363 9.9375 20.875 C11.93037737 25.65626547 13.59891981 30.53018993 15.25 35.4375 C15.52062256 36.2320459 15.79124512 37.0265918 16.07006836 37.84521484 C16.32022705 38.59625488 16.57038574 39.34729492 16.828125 40.12109375 C17.0540332 40.7958374 17.27994141 41.47058105 17.51269531 42.16577148 C18 44 18 44 18 47 C7.11 47 -3.78 47 -15 47 C-15 45.35 -15 43.7 -15 42 C-14.34 42 -13.68 42 -13 42 C-12.79246094 41.07703125 -12.58492187 40.1540625 -12.37109375 39.203125 C-9.88847849 28.56136838 -6.48009074 18.37866451 -2.75683594 8.11230469 C-1.79316154 5.42272053 -0.8876036 2.71553973 0 0 Z " fill="#DD2626" transform="translate(548,177)"/>
<path d="M0 0 C9.19790555 -0.03984716 18.39577417 -0.07828222 27.59375 -0.09765625 C33.2269267 -0.10957815 38.86003793 -0.12363075 44.49316406 -0.15087891 C49.03839965 -0.17272539 53.58356496 -0.18459337 58.12884903 -0.18975449 C59.8566511 -0.19342915 61.58444965 -0.20060446 63.31222153 -0.21146011 C72.09521805 -0.26441291 80.42675363 -0.19456882 89 2 C89 2.33 89 2.66 89 3 C60.29 2.67 31.58 2.34 2 2 C2 52.49 2 102.98 2 155 C12.23 155 22.46 155 33 155 C33 155.33 33 155.66 33 156 C28.46102295 156.02465392 23.92208457 156.04283789 19.38305664 156.05493164 C17.83780234 156.0599714 16.29255284 156.0668032 14.74731445 156.07543945 C12.53074971 156.08752076 10.31424782 156.09323173 8.09765625 156.09765625 C7.05545677 156.10539818 7.05545677 156.10539818 5.99220276 156.11329651 C4.3277067 156.11349277 2.66334501 156.06189129 1 156 C0 155 0 155 -0.12304783 152.45625973 C-0.12212604 151.31415822 -0.12120424 150.17205671 -0.12025452 148.99534607 C-0.12162918 147.68977753 -0.12300385 146.38420898 -0.12442017 145.03907776 C-0.12088055 143.57870461 -0.11724573 142.11833169 -0.11352539 140.65795898 C-0.11324353 139.13073732 -0.11340123 137.60351553 -0.1139679 136.07629395 C-0.11425591 131.91738312 -0.10835855 127.75850089 -0.10139394 123.59959674 C-0.09516106 119.25805476 -0.09455665 114.91651219 -0.09336853 110.57496643 C-0.09025502 102.34786418 -0.08204137 94.12077514 -0.07201904 85.89367872 C-0.06085851 76.52986936 -0.05534761 67.16605938 -0.05032361 57.80224502 C-0.03985877 38.53482251 -0.02225895 19.26741231 0 0 Z " fill="#F3B6B6" transform="translate(344,133)"/>
<path d="M0 0 C6.435 -0.04125 12.87 -0.0825 19.5 -0.125 C21.51544922 -0.14320801 23.53089844 -0.16141602 25.60742188 -0.18017578 C27.22786189 -0.18602403 28.84830486 -0.1911188 30.46875 -0.1953125 C31.29149414 -0.20554443 32.11423828 -0.21577637 32.96191406 -0.22631836 C38.30708929 -0.22791108 42.86221274 0.50921635 48 2 C45.13496092 2.82548591 42.66657936 3.10240727 39.69042969 3.02172852 C38.84986023 3.00163223 38.00929077 2.98153595 37.14324951 2.96083069 C36.24519592 2.93379562 35.34714233 2.90676056 34.421875 2.87890625 C33.03201385 2.84348976 33.03201385 2.84348976 31.61407471 2.80735779 C28.65922107 2.73088117 25.70464013 2.64678793 22.75 2.5625 C20.74480494 2.5092633 18.73959663 2.45652301 16.734375 2.40429688 C11.82269405 2.2762191 6.91145545 2.13784309 2 2 C2 14.87 2 27.74 2 41 C1.34 41 0.68 41 0 41 C0 27.47 0 13.94 0 0 Z " fill="#E65F5F" transform="translate(377,164)"/>
<path d="M0 0 C0.99261337 0.00222061 1.98522675 0.00444122 3.00791931 0.00672913 C4.12900589 0.00680466 5.25009247 0.00688019 6.40515137 0.00695801 C8.2348069 0.01469994 8.2348069 0.01469994 10.10142517 0.02259827 C11.96377052 0.02472069 11.96377052 0.02472069 13.86373901 0.02688599 C17.16982383 0.03154861 20.47584039 0.04053955 23.78190613 0.05158997 C27.15338042 0.06180625 30.52486175 0.06638407 33.89634705 0.07142639 C40.51550667 0.08248056 47.13463385 0.09923715 53.75376892 0.12025452 C53.42376892 1.44025452 53.09376892 2.76025452 52.75376892 4.12025452 C52.25876892 3.62525452 52.25876892 3.62525452 51.75376892 3.12025452 C50.06667545 2.99726286 48.37455989 2.94240193 46.68321228 2.91493225 C45.60216721 2.89498703 44.52112213 2.87504181 43.40731812 2.85449219 C42.23129532 2.83777969 41.05527252 2.8210672 39.84361267 2.80384827 C38.04785545 2.77267662 38.04785545 2.77267662 36.21582031 2.74087524 C32.37436406 2.67525173 28.53283691 2.61643549 24.69126892 2.55775452 C22.09425625 2.51458146 19.49725086 2.47096759 16.9002533 2.42689514 C10.51816776 2.31955736 4.136011 2.21781521 -2.24623108 2.12025452 C-2.39568176 2.89457825 -2.54513245 3.66890198 -2.69911194 4.46669006 C-3.23116545 7.04718522 -3.95394176 9.44271608 -4.80873108 11.93275452 C-5.07814514 12.72294983 -5.3475592 13.51314514 -5.62513733 14.32728577 C-5.83009827 14.91896545 -6.0350592 15.51064514 -6.24623108 16.12025452 C-7.65754205 12.35973604 -6.79113828 10.10003208 -5.37123108 6.43275452 C-5.0025592 5.45951233 -4.63388733 4.48627014 -4.25404358 3.48353577 C-2.83318513 0.15167776 -2.83318513 0.15167776 0 0 Z " fill="#E76666" transform="translate(524.2462310791016,252.87974548339844)"/>
<path d="M0 0 C11.55 0 23.1 0 35 0 C34.67 1.65 34.34 3.3 34 5 C33.34 5.33 32.68 5.66 32 6 C32.33 4.68 32.66 3.36 33 2 C21.78 2.33 10.56 2.66 -1 3 C-0.67 2.01 -0.34 1.02 0 0 Z " fill="#F5C2C2" transform="translate(834,133)"/>
<path d="M0 0 C0.66 0.33 1.32 0.66 2 1 C0.38113585 2.67262717 -1.2452729 4.33795537 -2.875 6 C-3.77992188 6.928125 -4.68484375 7.85625 -5.6171875 8.8125 C-8 11 -8 11 -10 11 C-8.55218207 7.55571735 -6.72305391 5.63869038 -3.875 3.25 C-3.15054688 2.63640625 -2.42609375 2.0228125 -1.6796875 1.390625 C-0.84824219 0.70226562 -0.84824219 0.70226562 0 0 Z " fill="#E14343" transform="translate(253,166)"/>
<path d="M0 0 C-1.59092052 4.13639336 -4.60474918 7.23213248 -8 10 C-8.66 10 -9.32 10 -10 10 C-8.50006099 6.10015857 -4.53875449 0 0 0 Z " fill="#F7CBCB" transform="translate(227,145)"/>
</svg>